/* XPM */
static char *icon_48_xpm[] = {
/* width height ncolors chars_per_pixel */
"48 48 916 2",
/* colors */
"   c #A27300",
" . c #C68D00",
" X c #D89B00",
" o c #EAA90C",
" O c #EAAA0C",
" + c #FCB716",
" @ c #6C503E",
" # c #48372F",
" $ c #5A4538",
" % c #483A36",
" & c #5A473B",
" * c #483B37",
" = c #483C3A",
" - c #5A493D",
" ; c #36312E",
" : c #36322F",
" > c #363230",
" , c #363232",
" < c #363233",
" 1 c #363234",
" 2 c #36332D",
" 3 c #363333",
" 4 c #363334",
" 5 c #363335",
" 6 c #7D8580",
" 7 c #36342F",
" 8 c #363434",
" 9 c #363435",
" 0 c #363436",
" q c #484139",
" w c #363533",
" e c #363536",
" r c #EB9552",
" t c #48443E",
" y c #6C6142",
" u c #7E6E48",
" i c #484848",
" p c #7E6F48",
" a c #7E704A",
" s c #484B45",
" d c #5A5D5A",
" f c #C78E00",
" g c #6C6C6D",
" h c #485360",
" j c #6D4F40",
" k c #7F5C48",
" l c #6D503D",
" z c #5A636C",
" x c #6C7068",
" c c #5B4438",
" v c #493A31",
" b c #252125",
" n c #5B473A",
" m c #372E2A",
" M c #493B29",
" N c #252228",
" B c #5B483D",
" V c #5A6877",
" C c #373031",
" Z c #37312E",
" A c #373134",
" S c #252529",
" D c #373230",
" F c #5B4B42",
" G c #373332",
" H c #373333",
" J c #373433",
" K c #373434",
" L c #373435",
" P c #373436",
" I c #373532",
" U c #373534",
" Y c #6C7A81",
" T c #49423E",
" R c #373634",
" E c #373639",
" W c #37363A",
" Q c #494333",
" ! c #5B5143",
" ~ c #37383A",
" ^ c #37393B",
" / c #373A3D",
" ( c #373B44",
" ) c #5B554A",
" _ c #373C3C",
" ` c #373C3D",
" ' c #7F7049",
" ] c #494A47",
" [ c #7F7149",
" { c #7F714B",
" } c #7F7156",
" | c #494C50",
".  c #494D49",
".. c #495150",
".X c #A47400",
".o c #FEB700",
".O c #FEB800",
".+ c #FEB804",
".@ c #ECAB0C",
".# c #FEB805",
".$ c #ECAB0D",
".% c #6D7169",
".& c #6D7269",
".* c #26211E",
".= c #6D736A",
".- c #4A3B29",
".; c #26221E",
".: c #262220",
".> c #262222",
"., c #4A3B33",
".< c #4A3B34",
".1 c #382F2B",
".2 c #262322",
".3 c #4A3C34",
".4 c #262324",
".5 c #4A3C39",
".6 c #262424",
".7 c #262425",
".8 c #38322D",
".9 c #383330",
".0 c #383334",
".q c #4A4036",
".w c #383431",
".e c #383432",
".r c #383434",
".t c #7F8682",
".y c #38352F",
".u c #383534",
".i c #383535",
".p c #383536",
".a c #383630",
".s c #383634",
".d c #383635",
".f c #383737",
".g c #383739",
".h c #5C5139",
".j c #383836",
".k c #4A453D",
".l c #4A453E",
".z c #383938",
".x c #38393C",
".c c #5C5344",
".v c #5C543C",
".b c #6E614D",
".n c #4A4846",
".m c #6E6243",
".M c #383C43",
".N c #919B91",
".B c #383D3F",
".V c #5C584E",
".C c #80724A",
".Z c #80724B",
".A c #4A5058",
".S c #80786E",
".D c #6F503F",
".F c #FFB800",
".G c #5D4536",
".H c #A57920",
".J c #6F5241",
".K c #6F5427",
".L c #272220",
".P c #4B3B32",
".I c #272221",
".U c #6F5446",
".Y c #392F2D",
".T c #272320",
".R c #272323",
".E c #6E756B",
".W c #39302B",
".Q c #272422",
".! c #4B3D34",
".~ c #272423",
".^ c #272527",
"./ c #27252C",
".( c #EDB13B",
".) c #4B4240",
"._ c #39362F",
".` c #393632",
".' c #393634",
".] c #393636",
".[ c #4B4337",
".{ c #393735",
".} c #393736",
".| c #393737",
"X  c #393833",
"X. c #39383A",
"XX c #A58456",
"Xo c #393B3C",
"XO c #4B4840",
"X+ c #4B4944",
"X@ c #81704A",
"X# c #937D62",
"X$ c #4B4B45",
"X% c #4B4C54",
"X& c #81734B",
"X* c #4B4D48",
"X= c #81744D",
"X- c #81754F",
"X; c #5D5E59",
"X: c #4C3329",
"X> c #5D605A",
"X, c #B88300",
"X< c #4C372E",
"X1 c #A67922",
"X2 c #A67A21",
"X3 c #6F746C",
"X4 c #282321",
"X5 c #282323",
"X6 c #5E493C",
"X7 c #5E493D",
"X8 c #282422",
"X9 c #282426",
"X0 c #16181F",
"Xq c #282528",
"Xw c #3A322D",
"Xe c #16191E",
"Xr c #3A3230",
"Xt c #282626",
"Xy c #28262B",
"Xu c #3A3437",
"Xi c #3A3532",
"Xp c #28292F",
"Xa c #3A3633",
"Xs c #3A3636",
"Xd c #5E5037",
"Xf c #3A3731",
"Xg c #3A3735",
"Xh c #3A3736",
"Xj c #3A3833",
"Xk c #3A383A",
"Xl c #3A3933",
"Xz c #4C463E",
"Xx c #3A3A3B",
"Xc c #3A3B3B",
"Xv c #4C4C46",
"Xb c #4C4C48",
"Xn c #82734B",
"Xm c #4C4D49",
"XM c #706748",
"XN c #4C4F49",
"XB c #A68E6E",
"XV c #4C504D",
"XC c #706B50",
"XZ c #827868",
"XA c #835B00",
"XS c #5E615A",
"XD c #956900",
"XF c #71513D",
"XG c #715240",
"XH c #5F4639",
"XJ c #715340",
"XK c #715427",
"XL c #292320",
"XP c #29241F",
"XI c #70766E",
"XU c #4D3E34",
"XY c #3B322B",
"XT c #3B322D",
"XR c #3B3232",
"XE c #292623",
"XW c #292624",
"XQ c #292626",
"X! c #292629",
"X~ c #3B3331",
"X^ c #B98C43",
"X/ c #292725",
"X( c #292726",
"X) c #292728",
"X_ c #29272A",
"X` c #3B342D",
"X' c #292828",
"X] c #29282A",
"X[ c #29282D",
"X{ c #29292E",
"X} c #3B3634",
"X| c #3B3736",
"o  c #3B3737",
"o. c #3B373A",
"oX c #292B31",
"oo c #3B383A",
"oO c #3B3939",
"o+ c #3B393A",
"o@ c #3B3A38",
"o# c #3B3D44",
"o$ c #3B3E45",
"o% c #4D4B46",
"o& c #716645",
"o* c #5F5A42",
"o= c #83744C",
"o- c #83754D",
"o; c #4D4F4A",
"o: c #4D4F4B",
"o> c #5F635C",
"o, c #5F6363",
"o< c #72523E",
"o1 c #4E3A2F",
"o2 c #A87B1F",
"o3 c #725441",
"o4 c #4E3B31",
"o5 c #4E3D31",
"o6 c #604A3E",
"o7 c #4E3E36",
"o8 c #2A2528",
"o9 c #3C322C",
"o0 c #3C322D",
"oq c #604B3E",
"ow c #2A2623",
"oe c #2A2624",
"or c #2A2626",
"ot c #2A2627",
"oy c #2A2628",
"ou c #2A262A",
"oi c #604C41",
"op c #2A2726",
"oa c #2A2727",
"os c #2A2729",
"od c #2A272A",
"of c #2A272E",
"og c #3C342E",
"oh c #2A2829",
"oj c #2A282A",
"ok c #2A282B",
"ol c #2A282D",
"oz c #4E4239",
"ox c #2A292E",
"oc c #3C3637",
"ov c #3C3732",
"ob c #3C3736",
"on c #3C3833",
"om c #3C3835",
"oM c #3C3837",
"oN c #3C3938",
"oB c #3C393A",
"oV c #4E463B",
"oC c #3C3A37",
"oZ c #3C3B3E",
"oA c #4E4B43",
"oS c #726550",
"oD c #3C4142",
"oF c #84754D",
"oG c #4E4F4B",
"oH c #84764E",
"oJ c #60625D",
"oK c #976B00",
"oL c #60635C",
"oP c #606463",
"oI c #855F47",
"oU c #855F4C",
"oY c #606662",
"oT c #614737",
"oR c #CD9518",
"oE c #735441",
"oW c #614839",
"oQ c #61483C",
"o! c #735540",
"o~ c #735545",
"o^ c #3D302D",
"o/ c #735646",
"o( c #2B2624",
"o) c #735846",
"o_ c #2B2629",
"o` c #2B2723",
"o' c #2B2725",
"o] c #2B2727",
"o[ c #DFA63B",
"o{ c #2B272B",
"o} c #3D3431",
"o| c #2B2826",
"O  c #2B2827",
"O. c #2B2828",
"OX c #2B2829",
"Oo c #2B282B",
"OO c #2B282C",
"O+ c #3D3530",
"O@ c #2B2927",
"O# c #2B292C",
"O$ c #2B292E",
"O% c #2B292F",
"O& c #2B2A2C",
"O* c #2B2A30",
"O= c #2B2B2D",
"O- c #2B2B2E",
"O; c #2B2B32",
"O: c #DFAA4C",
"O> c #3D3834",
"O, c #3D3835",
"O< c #2B2C31",
"O1 c #3D3934",
"O2 c #3D3A3B",
"O3 c #3D3B36",
"O4 c #3D3B3C",
"O5 c #61563D",
"O6 c #3D3D41",
"O7 c #3D3E40",
"O8 c #61584F",
"O9 c #736849",
"O0 c #4F504C",
"Oq c #85774E",
"Ow c #85784E",
"Oe c #F2AE00",
"Or c #74533F",
"Ot c #4F5A68",
"Oy c #F2AF00",
"Ou c #CE9517",
"Oi c #3E3129",
"Op c #2C2726",
"Oa c #2C2823",
"Os c #2C2824",
"Od c #2C2825",
"Of c #2C2826",
"Og c #2C2827",
"Oh c #2C2828",
"Oj c #3E352F",
"Ok c #2C2926",
"Ol c #2C2929",
"Oz c #2C2A2B",
"Ox c #2C2A2E",
"Oc c #2C2A2F",
"Ov c #2C2A30",
"Ob c #2C2B2B",
"On c #2C2B2E",
"Om c #625149",
"OM c #2C2C31",
"ON c #3E3936",
"OB c #3E3937",
"OV c #3E3938",
"OC c #3E3A39",
"OZ c #746049",
"OA c #3E3B3B",
"OS c #3E3B3D",
"OD c #3E3B3E",
"OF c #3E3C40",
"OG c #2C3039",
"OH c #504A40",
"OJ c #504C48",
"OK c #3E444E",
"OL c #86784F",
"OP c #867850",
"OI c #867950",
"OU c #867B52",
"OY c #505555",
"OT c #875E00",
"OR c #988976",
"OE c #62645B",
"OW c #62645F",
"OQ c #634838",
"O! c #755541",
"O~ c #CF961A",
"O^ c #755726",
"O/ c #3F312D",
"O( c #634C3C",
"O) c #3F342E",
"O_ c #514137",
"O` c #2D2827",
"O' c #2D2926",
"O] c #2D2927",
"O[ c #2D2928",
"O{ c #2D2929",
"O} c #2D292B",
"O| c #2D292C",
"+  c #2D2A26",
"+. c #2D2A28",
"+X c #2D2A29",
"+o c #2D2A2A",
"+O c #2D2A2D",
"++ c #2D2A2F",
"+@ c #2D2A30",
"+# c #2D2B28",
"+$ c #2D2B29",
"+% c #2D2B2A",
"+& c #2D2B2B",
"+* c #2D2B2D",
"+= c #2D2B2E",
"+- c #2D2C2C",
"+; c #3F3930",
"+: c #3F3934",
"+> c #3F3935",
"+, c #2D2D2F",
"+< c #756046",
"+1 c #3F3B30",
"+2 c #3F3B3C",
"+3 c #3F3C3E",
"+4 c #868E87",
"+5 c #3F3E39",
"+6 c #3F3E3C",
"+7 c #3F4142",
"+8 c #756845",
"+9 c #756947",
"+0 c #877A50",
"+q c #515450",
"+w c #885F00",
"+e c #636761",
"+r c #F4B000",
"+t c #644939",
"+y c #765826",
"+u c #765827",
"+i c #524135",
"+p c #644E40",
"+a c #757B70",
"+s c #2E2A27",
"+d c #2E2A28",
"+f c #2E2A29",
"+g c #636F74",
"+h c #2E2A2A",
"+j c #2E2B28",
"+k c #2E2B2A",
"+l c #2E2B2B",
"+z c #2E2B2C",
"+x c #2E2B2D",
"+c c #2E2B2E",
"+v c #403834",
"+b c #2E2C2D",
"+n c #2E2C2F",
"+m c #2E2C33",
"+M c #40392D",
"+N c #403933",
"+B c #2E2D2D",
"+V c #2E2D2E",
"+C c #2E2D2F",
"+Z c #2E2D31",
"+A c #2E2D32",
"+S c #2E2D33",
"+D c #2E2D34",
"+F c #E2AC4C",
"+G c #403A35",
"+H c #403A36",
"+J c #2E2E2F",
"+K c #D0A04E",
"+L c #2E2E35",
"+P c #2E2E36",
"+I c #524836",
"+U c #403C36",
"+Y c #403C38",
"+T c #2E302E",
"+R c #403D38",
"+E c #403D3C",
"+W c #2E3131",
"+Q c #403E33",
"+! c #524C38",
"+~ c #645B42",
"+^ c #52544E",
"+/ c #887B53",
"+( c #887C52",
"+) c #AD7B00",
"+_ c #654A3D",
"+` c #D19815",
"+' c #D19817",
"+] c #533E32",
"+[ c #525E6C",
"+{ c #1D1A18",
"+} c #F5B424",
"+| c #F5B428",
"@  c #534137",
"@. c #654E45",
"@X c #534237",
"@o c #2F2927",
"@O c #2F2928",
"@+ c #2F2929",
"@@ c #2F2A27",
"@# c #2F2A28",
"@$ c #2F2A29",
"@% c #2F2A2A",
"@& c #2F2A2B",
"@* c #2F2B29",
"@= c #2F2B2B",
"@- c #2F2B2C",
"@; c #2F2B2E",
"@: c #2F2C29",
"@> c #2F2C2A",
"@, c #2F2C2B",
"@< c #2F2C2C",
"@1 c #2F2C2D",
"@2 c #2F2C2E",
"@3 c #2F2C31",
"@4 c #2F2D2D",
"@5 c #2F2D2E",
"@6 c #2F2D2F",
"@7 c #2F2D34",
"@8 c #2F2E2C",
"@9 c #2F2E2E",
"@0 c #2F2E30",
"@q c #534741",
"@w c #2F2E33",
"@e c #413B34",
"@r c #413B35",
"@t c #413B36",
"@y c #2F2F2D",
"@u c #413C37",
"@i c #413C3B",
"@p c #2F3031",
"@a c #2F3134",
"@s c #413E39",
"@d c #414039",
"@f c #776743",
"@g c #414242",
"@h c #535048",
"@j c #414442",
"@k c #89794F",
"@l c #41474F",
"@z c #897B52",
"@x c #897C53",
"@c c #AE7C00",
"@v c #535C6C",
"@b c #785744",
"@n c #544137",
"@m c #664E44",
"@M c #536272",
"@N c #302A27",
"@B c #302A2A",
"@V c #54433D",
"@C c #777C73",
"@Z c #42372F",
"@A c #302B27",
"@S c #302B28",
"@D c #302B29",
"@F c #54443B",
"@G c #302B2A",
"@H c #302B2B",
"@J c #302C27",
"@K c #302C29",
"@L c #302C2A",
"@P c #302C2D",
"@I c #302C2E",
"@U c #302C2F",
"@Y c #302D2A",
"@T c #302D2B",
"@R c #302D2E",
"@E c #302D30",
"@W c #302D34",
"@Q c #423A2E",
"@! c #302E2B",
"@~ c #302E2C",
"@^ c #302E2E",
"@/ c #302E30",
"@( c #302E35",
"@) c #423B33",
"@_ c #423B36",
"@` c #302F2D",
"@' c #302F36",
"@] c #898E85",
"@[ c #423D37",
"@{ c #423D39",
"@} c #423D3B",
"@| c #423D3C",
"#  c #423E38",
"#. c #899088",
"#X c #303232",
"#o c #303234",
"#O c #303238",
"#+ c #42403A",
"#@ c #424045",
"## c #303439",
"#$ c #665B3F",
"#% c #C17A48",
"#& c #42423F",
"#* c #424249",
"#= c #545048",
"#- c #786A46",
"#; c #786A47",
"#: c #C09D66",
"#> c #786B46",
"#, c #54523F",
"#< c #AE936E",
"#1 c #8A7C53",
"#2 c #8A7D53",
"#3 c #8B6200",
"#4 c #666861",
"#5 c #E5A400",
"#6 c #E5A500",
"#7 c #795841",
"#8 c #674C3C",
"#9 c #674E3F",
"#0 c #433631",
"#q c #674F43",
"#w c #312B29",
"#e c #312B2A",
"#r c #312B2B",
"#t c #55443D",
"#y c #312C29",
"#u c #312C2B",
"#i c #433935",
"#p c #312D2A",
"#a c #312D2B",
"#s c #312D2C",
"#d c #312D2D",
"#f c #312D2E",
"#g c #312D30",
"#h c #1F2126",
"#j c #1F2127",
"#k c #312E2B",
"#l c #312E2C",
"#z c #312E2D",
"#x c #312E30",
"#c c #78807B",
"#v c #312F2D",
"#b c #433C37",
"#n c #313031",
"#m c #313032",
"#M c #313033",
"#N c #313132",
"#B c #313231",
"#V c #313435",
"#C c #D3A65D",
"#Z c #675B48",
"#A c #675C4C",
"#S c #313738",
"#D c #555049",
"#F c #796A46",
"#G c #C19D69",
"#H c #796B47",
"#J c #434542",
"#K c #796C48",
"#L c #55544D",
"#P c #55564F",
"#I c #555750",
"#U c #684431",
"#Y c #8B7F55",
"#T c #D49800",
"#R c #676A62",
"#E c #684C3C",
"#W c #564134",
"#Q c #684F40",
"#! c #56433A",
"#~ c #44382A",
"#^ c #322C29",
"#/ c #322C2A",
"#( c #322C2B",
"#) c #322C2C",
"#_ c #797E74",
"#` c #322D29",
"#' c #322D2A",
"#] c #322D2B",
"#[ c #322D2C",
"#{ c #56463E",
"#} c #322D2E",
"#| c #202128",
"$  c #322E2A",
"$. c #322E2B",
"$X c #322E2C",
"$o c #322E2D",
"$O c #67737B",
"$+ c #322E31",
"$@ c #322E32",
"$# c #202227",
"$$ c #322F2B",
"$% c #322F2E",
"$& c #322F32",
"$* c #32302F",
"$= c #323031",
"$- c #323032",
"$; c #323034",
"$: c #323036",
"$> c #443D34",
"$, c #32312F",
"$< c #323131",
"$1 c #323132",
"$2 c #323138",
"$3 c #323231",
"$4 c #323232",
"$5 c #323235",
"$6 c #323236",
"$7 c #443F3E",
"$8 c #323335",
"$9 c #44403D",
"$0 c #564D3B",
"$q c #323436",
"$w c #323536",
"$e c #323636",
"$r c #323738",
"$t c #444446",
"$y c #7A6B46",
"$u c #7A6B47",
"$i c #7A6C47",
"$p c #686152",
"$a c #7A6E4C",
"$s c #565758",
"$d c #565B60",
"$f c #9F6E4D",
"$g c #C38B00",
"$h c #565E5C",
"$j c #E7A600",
"$k c #7B5942",
"$l c #45362C",
"$z c #211D1B",
"$x c #574337",
"$c c #453830",
"$v c #332C2B",
"$b c #332D2C",
"$n c #332D2D",
"$m c #332E2B",
"$M c #332E2D",
"$N c #332F2B",
"$B c #332F2C",
"$V c #332F2D",
"$C c #332F2E",
"$Z c #332F2F",
"$A c #7A8177",
"$S c #453C37",
"$D c #33302C",
"$F c #33302D",
"$G c #33302F",
"$H c #333030",
"$J c #333032",
"$K c #333034",
"$L c #33312D",
"$P c #333132",
"$I c #333133",
"$U c #333137",
"$Y c #33313B",
"$T c #333232",
"$R c #333233",
"$E c #333235",
"$W c #333238",
"$Q c #453F37",
"$! c #453F3A",
"$~ c #45403C",
"$^ c #45413E",
"$/ c #574E42",
"$( c #333535",
"$) c #333636",
"$_ c #695D3F",
"$` c #454541",
"$' c #7B6C48",
"$] c #7B6C55",
"$[ c #696044",
"${ c #7B6D47",
"$} c #454B4A",
"$| c #8E6405",
"%  c #696B5B",
"%. c #696B63",
"%X c #E8A700",
"%o c #FAB400",
"%O c #FAB504",
"%+ c #696D68",
"%@ c #6A4F3D",
"%# c #696F6D",
"%$ c #584438",
"%% c #463929",
"%& c #463A2C",
"%* c #463A33",
"%= c #58473E",
"%- c #342E2D",
"%; c #7B8177",
"%: c #34302C",
"%> c #34302D",
"%, c #34302E",
"%< c #34302F",
"%1 c #343032",
"%2 c #34312E",
"%3 c #34312F",
"%4 c #697680",
"%5 c #463E32",
"%6 c #34322F",
"%7 c #343230",
"%8 c #343231",
"%9 c #343232",
"%0 c #343233",
"%q c #463F3A",
"%w c #343331",
"%e c #343332",
"%r c #343333",
"%t c #343334",
"%y c #343335",
"%u c #343336",
"%i c #34333A",
"%p c #343432",
"%a c #343537",
"%s c #34373A",
"%d c #34393A",
"%f c #585349",
"%g c #7C6D48",
"%h c #464D4A",
"%j c #7C756D",
"%k c #D79A00",
"%l c #58605B",
"%z c #E9A800",
"%x c #FBB504",
"%c c #6A6D66",
"%v c #FBB60E",
"%b c #A17621",
"%n c #A17622",
"%m c #6A6F68",
"%M c #FBB716",
"%N c #E9AB2D",
"%B c #232121",
"%V c #473A32",
"%C c #352E2D",
"%Z c #352E2E",
"%A c #352F2F",
"%S c #352F30",
"%D c #7C8176",
"%F c #35302F",
"%G c #353031",
"%H c #353032",
"%J c #232427",
"%K c #353130",
"%L c #353132",
"%P c #353230",
"%I c #353232",
"%U c #353235",
"%Y c #353330",
"%T c #35333C",
"%R c #35342E",
"%E c #353433",
"%W c #353435",
"%Q c #353736",
"%! c #474434",
"%~ c #353839",
"%^ c #353A39",
"%/ c #353B3B",
"%( c #7D6E48",
"%) c #7D6E49",
"%_ c #7D704C",
"%` c #474D56",
"%' c #595D63",
"%] c None",
/* pixels */
"%]%]%]%]%]%]%]%]%]%]%]%]%]%]%]%]%]%]%]%]%]%]%]%]%]%]%]%]%]%]%]%]%]%]%]%]%]%]%]%]%]%]%]%]%]%]%]%]",
"%]%]%]%]%]%]%]%]%]%]%]%]%]%]%]%]%]%]%]%]%]%]%]%]%]%]%]+V%J%]%]%]%]%]%]%]%]%]%]%]%]%]%]%]%]%]%]%]",
"%]%]%]%]%]%]%]%]%]%]%]%]%]%]%]%]%]%]%]%]%]%]%]%]%]%]$C#r#u$P%]%]%]%]%]%]%]%]%]%]%]%]%]%]%]%]%]%]",
"%]%]%]%]%]%]%]%]%]%]%]%]%]%]%]%]%]%]%]%]%]%]%]%]%]Of@GO+#A ;#}$-%]%]%]%]%]%]%]%]%]%]%]%]%]%]%]%]",
"%]%]%]%]%]%]%]%]%]%]%]%]%]%]%]%]%]%]%]%]%]%]%]%]$z#d@&@)$p$].l@G%F+,%]%]%]%]%]%]%]%]%]%]%]%]%]%]",
"%]%]%]%]%]%]%]%]%]%]%]%]%]%]%]%]%]%]%]%]%]%]%]%]@% 4.p$HOhon%f.V.k@D.uO=%]%]%]%]%]%]%]%]%]%]%]%]",
"%]%]%]%]%]%]%]%]%]%]%]%]%]%]%]%]%]%]%]%]%]%]$|@NO6+3oS.bOV@ROp t )@{#/$m.| S%]%]%]%]%]%]%]%]%]%]",
"%]%]%]%]%]%]%]%]%]%]%]%]%]%]%]%]%]%]X,%X.O.FX1%0 YOY+H$/OH.].r@H@L@@#`#^$v$b 0%]%]%]%]%]%]%]%]%]",
"%]%]%]%]%]%]%]%]%]%]%]%]%]%]%]%] X.F.F.F.FO~+l%'+g#, 7+:+>X|.]Xs ,@#@A#w#^#'#]%F%u%]%]%]%]%]%]%]",
"%]%]%]%]%]%]%]%]%]%]%]%]%]%]$g.o.F.F.F.F.$%% |%4XC#; y Q.y@_O,Xg.}Xh$H@#@S#e#u#(#).0#m%]%]%]%]%]",
"%]%]%]%]%]%]%]%]%]%]%]%]%]%z.F.F.F.F.F%xO^O7$O% #K#>$u#-#$+1ov#bomob !OB$%@O@B#e#)$n%Zo O-%]%]%]",
"%]%]%]%]%]%]%]%]%]%]%]%]+r.F.F.F.F.F.FX2@<$t#+XM$y$y$i$'%g#H.v._+U@t.c }#Z.i@I@+#[$n%-%A CX.%]%]",
"%]%]%]%]%]%]%]%]%]%]%]+r.F.F.F.F.F.F+`+%%W U.`+;.h#F${%(%) p a+9+!.a# @u.c#=$^ 5@P$v%C%AXuo#%]%]",
"%]%]%]%]%]%]%]%]%]%]%z.F.F.F.F.F.F.@ M$1$1%9 U IXf%5$_ u ' [.C.C.Zo&%!O1%q@{@ho%+E L#}%SX%%]%]%]",
"%]%]%]%]%]%]%]%]%]$g.F.F.F.F.F.F%x+yX'%K+p 8$< w RXa+N+I+8.CX&Xno=o-X=$[+Q@s$~@|OJ+2%U#@%]%]%]%]",
"%]%]%]%]%]%]%]%]%].o.F.F.F.F.F.Fo2+-oa.&@j%w U#i$T.s.'O>$>O5 {oFoFoHOwOPX-o*Xj$9@}o.%G.M%]%]%]%]",
"%]%]%]%]%]%]%]%]%k.F.F.F.F.F.F+'+%%$+_oa$eOs#L -.s$4%E.{X}@r.[.mOqOLOI+0+(+/$a+M D%L#*%]%]%]%]%]",
"%]%]%]%]%]%]%]%].F.F.F.F.F.F.@.-.~#4oWo3%3O@ x%^%Y$S@F$R.dobON$Q$0%_@z@x#2#1X@@Q <o+%]%]%]%]%]%]",
"%]%]%]%]%]%]%]X,.F.F.F.F.F%x+u+oO{+^%lOd#yO_+%$,@dOE+v.}%t%roNoC+Y q+~OU#Y@kXd G%L#O%]%]%]%]%]%]",
"%]%]%]%]%]%]%]$j.F.F.F.F.F.HX)Oh.6O@+%$L#_@e$N%2+$X*%~$B%=#{ 9.foOOC$!oVO9@f Z 1+<%]%]%]%]%]%]%]",
"%]%]%]%]%]%]%].O.F.F.F.FOu@,.RXv#P.GXFO]o;%/Oa@J n#z$BoL%..jo@.f eO2O4@i T+G K$7%N%]%]%]%]%]%]%]",
"%]%]%]%]%]%]%].F.F.F.F O%&@4%-+6.=+a.q.2O@@K%R%;@y%:.9+XXV%e%:X7@q.g WODOSoB PX^.F+w%]%]%]%]%]%]",
"%]%]%]%]%]%]XD.F.F.F%O.KXto'.D.3O XN.E+T+jXU.WXE#X 2 &@b J$GO0%mXcOA.) EoZooOZ%v.F  %]%]%]%]%]%]",
"%]%]%]%]%]%]  .F.F.F%n@5XQ.N$(+j$ o9.Q+W$DXzO($x$m s%D%p : B$Z#o%2Xb FOm 3OFo[.F.F+)%]%]%]%]%]%]",
"%]%]%]%]%]%].X.F.FoR+z@1o7O.+,+dowOQOrXT$`XI$}X`#E$cOb@8Xmozo)oM%I$h.tXx$oXX.F.F.F@c%]%]%]%]%]%]",
"%]%]%]%]%]%]oK.F o#~.7oG $.!$Bo'o`.%Oi+]#aX(#BO3XOO!@ %,#J+4%QXioioc%a$BO8+|.F.F.F.X%]%]%]%]%]%]",
"%]%]%]%]%]%]%]%OXK+bX($A%h+.#p m#vXE%dOdXWoT.8Ok%c _%>+iO_+J$V ]#Do/ >Xk+K.F.F.F.F#3%]%]%]%]%]%]",
"%]%]%]%]%]%]%]%bOb@1$%OX+*O`.To1$k#`+#.;#IoAo5@!+k$*.TX+#8%P H ^ 6oD@-X#.+.F.F.F.F%]%]%]%]%]%]%]",
"%]%]%]%]%]%]+{+&X:#%X<#s$Mo|X @CO'o|@ZOf#RXl$)$$+t%*.2+q ` >oq#t#M@>$d.(.F.F.F.FOy%]%]%]%]%]%]%]",
"%]%]%]%]%]%]@<@6#U r$f@$$.XH+f$F$wo`$l#7 v+-O'XP@[o!@X@^%6.RoY#Q%V.x#:.F.F.F.F.F f%]%]%]%]%]%]%]",
"%]%]%]%]%]o]+C@P jO/@2o(X4o4oI.,@:.*XS+5 lOj#k+ @]$3@~%7 J.^#c.B@,.S +.F.F.F.F.F%]%]%]%]%]%]%]%]",
"%]%]%]%].>On@j. o^%C#sX($Do>+%ogXw#wX>$$#S$ #W ZX/$r+j+Xo6#q$I+l.A+F.F.F.F.F.F#6%]%]%]%]%]%]%]%]",
"%]%]%]+{#x@0.zX3..+h+o c$X.I$qoeXYoE.P+&OfXLovXG@n.eor@g d%<@^$E#<.F.F.F.F.F.F+w%]%]%]%]%]%]%]%]",
"%]%]%]%BO}+cXZ+R+nX5.R # @#0@L.*X$#&o<$N@TX8#.@`+B%7%8 ~%y /+z g+}.F.F.F.F.F#T%]%]%]%]%]%]%]%]%]",
"%]%]%]%]OxosO|#f@RX9X;oJ+%O)%,O[%+.w@p#sXJ.<XQ#V@*OX#9.U$=$o@l#C.F.F.F.F.FOe%]%]%]%]%]%]%]%]%]%]",
"%]%]%]%]%]X{o_od@E@/%rOg@ao'o0 ko}OzO..:@o%@X6%0XQXo%# %@9@UOR.#.F.F.F.F%o%]%]%]%]%]%]%]%]%]%]%]",
"%]%]%]%]%]%]$#O#Xq+=$+@;+l.L+s.1oQ%P@=@Y+4+&Xr$J#n 5 i%s+l z.(.F.F.F.F%oXA%]%]%]%]%]%]%]%]%]%]%]",
"%]%]%]%]%]%]%]Xe+SX!ok$+$Hoy.n#l+,$Z#!X~+k$8Oloj.J@.+Z@^o$#G.F.F.F.FOe%]%]%]%]%]%]%]%]%]%]%]%]%]",
"%]%]%]%]%]%]%]%]%]XpO}X_#g%1+xO&otop.YoU.5$&.4+7#N *+n+O%j%M.F.F.F#T%]%]%]%]%]%]%]%]%]%]%]%]%]%]",
"%]%]%]%]%]%]%]%]%]%]#j+mou+O%H%1ohOW+e%8$J 1 AX]$s##OO%`O:.F.F#5OT%]%]%]%]%]%]%]%]%]%]%]%]%]%]%]",
"%]%]%]%]%]%]%]%]%]%]%]%]oXOoo{$@$KOxo:$5O#XRo~ =ol+Z@'XBOe .%]%]%]%]%]%]%]%]%]%]%]%]%]%]%]%]%]%]",
"%]%]%]%]%]%]%]%]%]%]%]%]%]#h++o{@3$;@w+A bo8$6@m@VXy+[%]%]%]%]%]%]%]%]%]%]%]%]%]%]%]%]%]%]%]%]%]",
"%]%]%]%]%]%]%]%]%]%]%]%]%]%]X0OMOOO%$:$UOcoPo,O<X[OK h%]%]%]%]%]%]%]%]%]%]%]%]%]%]%]%]%]%]%]%]%]",
"%]%]%]%]%]%]%]%]%]%]%]%]%]%]%]%]O;+@O$@($W@( N+Lox V%]%]%]%]%]%]%]%]%]%]%]%]%]%]%]%]%]%]%]%]%]%]",
"%]%]%]%]%]%]%]%]%]%]%]%]%]%]%]%]%]#|@7Ov+D%i$2./Ot%]%]%]%]%]%]%]%]%]%]%]%]%]%]%]%]%]%]%]%]%]%]%]",
"%]%]%]%]%]%]%]%]%]%]%]%]%]%]%]%]%]%]%]+P@WO*of (@M%]%]%]%]%]%]%]%]%]%]%]%]%]%]%]%]%]%]%]%]%]%]%]",
"%]%]%]%]%]%]%]%]%]%]%]%]%]%]%]%]%]%]%]%]OG$Y%T@v%]%]%]%]%]%]%]%]%]%]%]%]%]%]%]%]%]%]%]%]%]%]%]%]",
"%]%]%]%]%]%]%]%]%]%]%]%]%]%]%]%]%]%]%]%]%]%]%]%]%]%]%]%]%]%]%]%]%]%]%]%]%]%]%]%]%]%]%]%]%]%]%]%]"
};
